<svg class="main-svg" xmlns="http://www.w3.org/2000/svg" xmlns:xlink="http://www.w3.org/1999/xlink" width="700" height="500" style="" viewBox="0 0 700 500"><rect x="0" y="0" width="700" height="500" style="fill: rgb(255, 255, 255); fill-opacity: 1;"/><defs id="defs-8c52ce"><g class="clips"><clipPath id="clip8c52cexyplot" class="plotclip"><rect width="453" height="360"/></clipPath><clipPath class="axesclip" id="clip8c52cex"><rect x="80" y="0" width="453" height="500"/></clipPath><clipPath class="axesclip" id="clip8c52cey"><rect x="0" y="60" width="700" height="360"/></clipPath><clipPath class="axesclip" id="clip8c52cexy"><rect x="80" y="60" width="453" height="360"/></clipPath></g><g class="gradients"/><g class="patterns"/></defs><g class="bglayer"><rect class="bg" x="80" y="60" width="453" height="360" style="fill: rgb(229, 236, 246); fill-opacity: 1; stroke-width: 0;"/></g><g class="layer-below"><g class="imagelayer"/><g class="shapelayer"/></g><g class="cartesianlayer"><g class="subplot xy"><g class="layer-subplot"><g class="shapelayer"/><g class="imagelayer"/></g><g class="minor-gridlayer"><g class="x"/><g class="y"/></g><g class="gridlayer"><g class="x"><path class="xgrid crisp" transform="translate(162.53,0)" d="M0,60v360" style="stroke: rgb(255, 255, 255); stroke-opacity: 1; stroke-width: 1px;"/><path class="xgrid crisp" transform="translate(274.4,0)" d="M0,60v360" style="stroke: rgb(255, 255, 255); stroke-opacity: 1; stroke-width: 1px;"/><path class="xgrid crisp" transform="translate(386.28,0)" d="M0,60v360" style="stroke: rgb(255, 255, 255); stroke-opacity: 1; stroke-width: 1px;"/><path class="xgrid crisp" transform="translate(496.32,0)" d="M0,60v360" style="stroke: rgb(255, 255, 255); stroke-opacity: 1; stroke-width: 1px;"/></g><g class="y"><path class="ygrid crisp" transform="translate(0,391.46)" d="M80,0h453" style="stroke: rgb(255, 255, 255); stroke-opacity: 1; stroke-width: 1px;"/><path class="ygrid crisp" transform="translate(0,324.74)" d="M80,0h453" style="stroke: rgb(255, 255, 255); stroke-opacity: 1; stroke-width: 1px;"/><path class="ygrid crisp" transform="translate(0,258.01)" d="M80,0h453" style="stroke: rgb(255, 255, 255); stroke-opacity: 1; stroke-width: 1px;"/><path class="ygrid crisp" transform="translate(0,191.29)" d="M80,0h453" style="stroke: rgb(255, 255, 255); stroke-opacity: 1; stroke-width: 1px;"/><path class="ygrid crisp" transform="translate(0,124.57)" d="M80,0h453" style="stroke: rgb(255, 255, 255); stroke-opacity: 1; stroke-width: 1px;"/></g></g><g class="zerolinelayer"/><path class="xlines-below"/><path class="ylines-below"/><g class="overlines-below"/><g class="xaxislayer-below"/><g class="yaxislayer-below"/><g class="overaxes-below"/><g class="plot" transform="translate(80,60)" clip-path="url(#clip8c52cexyplot)"><g class="scatterlayer mlayer"><g class="trace scatter trace22ce18" style="stroke-miterlimit: 2; opacity: 1;"><g class="fills"/><g class="errorbars"/><g class="lines"><path class="js-line" d="M453,18L451.17,21.07L449.33,40.95L442,41.49L440.16,44.96L436.49,43.89L434.66,44.15L429.16,43.89L427.32,46.16L419.99,46.29L418.15,47.76L416.32,47.36L414.49,54.16L412.65,54.3L410.82,57.37L405.32,57.63L403.48,56.43L401.65,57.63L397.98,58.57L394.31,58.57L392.48,59.37L390.64,60.17L388.81,64.04L386.98,65.64L385.14,65.77L381.47,65.77L379.64,66.97L377.81,67.64L375.97,65.64L364.97,66.31L363.13,67.24L352.13,68.17L350.3,70.04L348.46,73.25L346.63,73.25L341.13,73.78L339.29,71.91L337.46,71.91L335.62,76.58L331.96,76.98L330.12,76.98L328.29,85.52L326.45,85.52L315.45,85.66L313.62,85.66L300.78,85.92L298.94,88.72L297.11,91.13L295.28,91.13L289.77,91.66L287.94,90.46L284.27,94.6L282.44,94.73L278.77,95L276.94,96.6L275.1,97.67L271.43,98.73L262.26,99.27L260.43,108.47L258.6,112.61L256.76,112.61L247.59,113.68L245.76,110.74L243.92,114.61L242.09,114.61L236.59,115.28L234.75,115.68L227.42,116.21L225.58,116.48L223.75,116.48L221.91,121.95L210.91,122.49L209.08,190.54L198.07,191.08L196.24,192.01L194.4,194.68L192.57,194.68L185.23,194.81L183.4,196.01L176.06,196.55L174.23,197.61L172.4,198.28L170.56,200.68L168.73,200.95L166.89,204.29L165.06,205.35L163.23,205.35L161.39,201.35L159.56,205.35L152.22,206.42L150.39,206.42L146.72,206.69L144.89,207.22L143.05,214.43L141.22,214.43L135.72,214.43L133.88,215.5L121.04,216.16L119.21,216.3L117.38,216.43L115.54,185.47L108.21,185.6L106.37,189.74L80.7,195.08L78.86,199.48L69.69,199.48L67.86,199.48L49.52,201.62L47.68,201.62L42.18,201.62L1.83,208.42L0,208.56" style="vector-effect: none; fill: none; stroke: rgb(99, 110, 250); stroke-opacity: 1; stroke-width: 2px; opacity: 1;"/></g><g class="points"/><g class="text"/></g><g class="trace scatter tracea365ec" style="stroke-miterlimit: 2; opacity: 1;"><g class="fills"/><g class="errorbars"/><g class="lines"><path class="js-line" d="M453,341.2L447.5,341.47L445.66,341.47L440.16,341.47L438.33,339.6L429.16,339.2L427.32,339.6L416.32,339.2L414.49,340.4L405.32,340.4L403.48,339.33L350.3,338.93L348.46,341.07L341.13,341.07L339.29,338.93L260.43,338.8L258.6,342L247.59,342L245.76,338.8L144.89,338.66L143.05,336L117.38,335.33L115.54,295.56L106.37,295.56L80.7,325.45L0,325.45" style="vector-effect: none; fill: none; stroke: rgb(239, 85, 59); stroke-opacity: 1; stroke-width: 2px; opacity: 1;"/></g><g class="points"/><g class="text"/></g></g></g><g class="overplot"/><path class="xlines-above crisp" d="M0,0" style="fill: none;"/><path class="ylines-above crisp" d="M0,0" style="fill: none;"/><g class="overlines-above"/><g class="xaxislayer-above"><g class="xtick"><text text-anchor="middle" x="0" y="433" transform="translate(162.53,0)" style="font-family: 'Courier New'; font-size: 12px; fill: rgb(0, 0, 255); fill-opacity: 1; white-space: pre; opacity: 1;">Sep 2023</text></g><g class="xtick"><text text-anchor="middle" x="0" y="433" style="font-family: 'Courier New'; font-size: 12px; fill: rgb(0, 0, 255); fill-opacity: 1; white-space: pre; opacity: 1;" transform="translate(274.4,0)">Nov 2023</text></g><g class="xtick"><text text-anchor="middle" x="0" y="433" style="font-family: 'Courier New'; font-size: 12px; fill: rgb(0, 0, 255); fill-opacity: 1; white-space: pre; opacity: 1;" transform="translate(386.28,0)">Jan 2024</text></g><g class="xtick"><text text-anchor="middle" x="0" y="433" style="font-family: 'Courier New'; font-size: 12px; fill: rgb(0, 0, 255); fill-opacity: 1; white-space: pre; opacity: 1;" transform="translate(496.32,0)">Mar 2024</text></g></g><g class="yaxislayer-above"><g class="ytick"><text text-anchor="end" x="79" y="4.199999999999999" transform="translate(0,391.46)" style="font-family: 'Courier New'; font-size: 12px; fill: rgb(0, 0, 255); fill-opacity: 1; white-space: pre; opacity: 1;">2000</text></g><g class="ytick"><text text-anchor="end" x="79" y="4.199999999999999" style="font-family: 'Courier New'; font-size: 12px; fill: rgb(0, 0, 255); fill-opacity: 1; white-space: pre; opacity: 1;" transform="translate(0,324.74)">2500</text></g><g class="ytick"><text text-anchor="end" x="79" y="4.199999999999999" style="font-family: 'Courier New'; font-size: 12px; fill: rgb(0, 0, 255); fill-opacity: 1; white-space: pre; opacity: 1;" transform="translate(0,258.01)">3000</text></g><g class="ytick"><text text-anchor="end" x="79" y="4.199999999999999" style="font-family: 'Courier New'; font-size: 12px; fill: rgb(0, 0, 255); fill-opacity: 1; white-space: pre; opacity: 1;" transform="translate(0,191.29)">3500</text></g><g class="ytick"><text text-anchor="end" x="79" y="4.199999999999999" style="font-family: 'Courier New'; font-size: 12px; fill: rgb(0, 0, 255); fill-opacity: 1; white-space: pre; opacity: 1;" transform="translate(0,124.57)">4000</text></g></g><g class="overaxes-above"/></g></g><g class="polarlayer"/><g class="smithlayer"/><g class="ternarylayer"/><g class="geolayer"/><g class="funnelarealayer"/><g class="pielayer"/><g class="iciclelayer"/><g class="treemaplayer"/><g class="sunburstlayer"/><g class="glimages"/><defs id="topdefs-8c52ce"><g class="clips"/><clipPath id="legend8c52ce"><rect width="146" height="67" x="0" y="0"/></clipPath></defs><g class="layer-above"><g class="imagelayer"/><g class="shapelayer"/></g><g class="infolayer"><g class="legend" pointer-events="all" transform="translate(542.06,60)"><rect class="bg" shape-rendering="crispEdges" style="stroke: rgb(68, 68, 68); stroke-opacity: 1; fill: rgb(255, 255, 255); fill-opacity: 1; stroke-width: 0px;" width="146" height="67" x="0" y="0"/><g class="scrollbox" transform="" clip-path="url(#legend8c52ce)"><text class="legendtitletext" text-anchor="start" x="2" y="18.2" style="font-family: 'Courier New'; font-size: 14px; fill: rgb(0, 128, 0); fill-opacity: 1; white-space: pre;">type</text><g class="groups" transform=""><g class="traces" transform="translate(0,32.7)" style="opacity: 1;"><text class="legendtext" text-anchor="start" x="40" y="4.680000000000001" style="font-family: 'Courier New'; font-size: 12px; fill: rgb(0, 0, 255); fill-opacity: 1; white-space: pre;"># of open data</text><g class="layers" style="opacity: 1;"><g class="legendfill"/><g class="legendlines"><path class="js-line" d="M5,0h30" style="fill: none; stroke: rgb(99, 110, 250); stroke-opacity: 1; stroke-width: 2px;"/></g><g class="legendsymbols"><g class="legendpoints"/></g></g><rect class="legendtoggle" x="0" y="-9.5" width="140.828125" height="19" style="fill: rgb(0, 0, 0); fill-opacity: 0;"/></g></g><g class="groups" transform=""><g class="traces" transform="translate(0,51.7)" style="opacity: 1;"><text class="legendtext" text-anchor="start" x="40" y="4.680000000000001" style="font-family: 'Courier New'; font-size: 12px; fill: rgb(0, 0, 255); fill-opacity: 1; white-space: pre;">Non geospatial</text><g class="layers" style="opacity: 1;"><g class="legendfill"/><g class="legendlines"><path class="js-line" d="M5,0h30" style="fill: none; stroke: rgb(239, 85, 59); stroke-opacity: 1; stroke-width: 2px;"/></g><g class="legendsymbols"><g class="legendpoints"/></g></g><rect class="legendtoggle" x="0" y="-9.5" width="140.828125" height="19" style="fill: rgb(0, 0, 0); fill-opacity: 0;"/></g></g></g><rect class="scrollbar" rx="20" ry="3" width="0" height="0" style="fill: rgb(128, 139, 164); fill-opacity: 1;" x="0" y="0"/></g><g class="g-gtitle"/><g class="g-xtitle"><text class="xtitle" x="306.5" y="461.3" text-anchor="middle" style="font-family: 'Courier New'; font-size: 14px; fill: rgb(0, 0, 255); opacity: 1; font-weight: normal; white-space: pre;">Date</text></g><g class="g-ytitle"><text class="ytitle" transform="rotate(-90,25.887500000000003,240)" x="25.887500000000003" y="240" text-anchor="middle" style="font-family: 'Courier New'; font-size: 14px; fill: rgb(0, 0, 255); opacity: 1; font-weight: normal; white-space: pre;">count</text></g></g></svg>