<svg class="main-svg" xmlns="http://www.w3.org/2000/svg" xmlns:xlink="http://www.w3.org/1999/xlink" width="700" height="500" style="" viewBox="0 0 700 500"><rect x="0" y="0" width="700" height="500" style="fill: rgb(255, 255, 255); fill-opacity: 1;"/><defs id="defs-5c04d2"><g class="clips"><clipPath id="clip5c04d2xyplot" class="plotclip"><rect width="453" height="360"/></clipPath><clipPath class="axesclip" id="clip5c04d2x"><rect x="80" y="0" width="453" height="500"/></clipPath><clipPath class="axesclip" id="clip5c04d2y"><rect x="0" y="60" width="700" height="360"/></clipPath><clipPath class="axesclip" id="clip5c04d2xy"><rect x="80" y="60" width="453" height="360"/></clipPath></g><g class="gradients"/><g class="patterns"/></defs><g class="bglayer"><rect class="bg" x="80" y="60" width="453" height="360" style="fill: rgb(229, 236, 246); fill-opacity: 1; stroke-width: 0;"/></g><g class="layer-below"><g class="imagelayer"/><g class="shapelayer"/></g><g class="cartesianlayer"><g class="subplot xy"><g class="layer-subplot"><g class="shapelayer"/><g class="imagelayer"/></g><g class="minor-gridlayer"><g class="x"/><g class="y"/></g><g class="gridlayer"><g class="x"><path class="xgrid crisp" transform="translate(117.53,0)" d="M0,60v360" style="stroke: rgb(255, 255, 255); stroke-opacity: 1; stroke-width: 1px;"/><path class="xgrid crisp" transform="translate(200.62,0)" d="M0,60v360" style="stroke: rgb(255, 255, 255); stroke-opacity: 1; stroke-width: 1px;"/><path class="xgrid crisp" transform="translate(281.03999999999996,0)" d="M0,60v360" style="stroke: rgb(255, 255, 255); stroke-opacity: 1; stroke-width: 1px;"/><path class="xgrid crisp" transform="translate(364.13,0)" d="M0,60v360" style="stroke: rgb(255, 255, 255); stroke-opacity: 1; stroke-width: 1px;"/><path class="xgrid crisp" transform="translate(444.54,0)" d="M0,60v360" style="stroke: rgb(255, 255, 255); stroke-opacity: 1; stroke-width: 1px;"/><path class="xgrid crisp" transform="translate(527.64,0)" d="M0,60v360" style="stroke: rgb(255, 255, 255); stroke-opacity: 1; stroke-width: 1px;"/></g><g class="y"><path class="ygrid crisp" transform="translate(0,388.67)" d="M80,0h453" style="stroke: rgb(255, 255, 255); stroke-opacity: 1; stroke-width: 1px;"/><path class="ygrid crisp" transform="translate(0,304.28999999999996)" d="M80,0h453" style="stroke: rgb(255, 255, 255); stroke-opacity: 1; stroke-width: 1px;"/><path class="ygrid crisp" transform="translate(0,219.92)" d="M80,0h453" style="stroke: rgb(255, 255, 255); stroke-opacity: 1; stroke-width: 1px;"/><path class="ygrid crisp" transform="translate(0,135.54000000000002)" d="M80,0h453" style="stroke: rgb(255, 255, 255); stroke-opacity: 1; stroke-width: 1px;"/></g></g><g class="zerolinelayer"/><path class="xlines-below"/><path class="ylines-below"/><g class="overlines-below"/><g class="xaxislayer-below"/><g class="yaxislayer-below"/><g class="overaxes-below"/><g class="plot" transform="translate(80,60)" clip-path="url(#clip5c04d2xyplot)"><g class="scatterlayer mlayer"><g class="trace scatter trace6ed807" style="stroke-miterlimit: 2; opacity: 1;"><g class="fills"/><g class="errorbars"/><g class="lines"><path class="js-line" d="M453,18L439.6,18.17L436.92,21.71L434.24,24.75L431.56,24.75L423.51,25.42L420.83,23.91L418.15,27.28L415.47,29.14L407.43,29.64L404.75,31.67L402.07,33.02L396.71,34.37L383.31,35.04L380.63,46.69L377.95,51.92L375.27,51.92L361.86,53.27L359.18,49.56L356.5,54.45L353.82,54.45L348.46,54.62L345.78,55.29L337.74,56.48L335.06,56.48L327.02,56.81L324.34,63.73L308.25,64.41L305.57,150.47L289.49,151.14L286.81,152.33L284.13,155.7L281.45,155.7L270.73,155.87L268.05,157.39L257.33,158.06L254.64,159.41L251.96,160.26L249.28,163.29L246.6,163.63L243.92,167.85L241.24,169.2L238.56,169.2L235.88,164.14L233.2,169.2L225.16,170.55L222.48,170.55L214.44,170.89L211.76,171.56L209.08,180.68L206.4,180.68L198.36,180.68L195.67,182.03L182.27,182.7L179.59,182.87L171.55,183.21L168.87,144.06L158.15,144.23L155.47,149.46L117.94,156.21L115.26,161.78L104.54,161.61L101.86,161.78L88.46,162.28L85.78,162.96L80.41,163.46L77.73,164.48L61.65,164.48L2.68,173.08L0,173.25" style="vector-effect: none; fill: none; stroke: rgb(99, 110, 250); stroke-opacity: 1; stroke-width: 2px; opacity: 1;"/></g><g class="points"/><g class="text"/></g><g class="trace scatter tracebcc90f" style="stroke-miterlimit: 2; opacity: 1;"><g class="fills"/><g class="errorbars"/><g class="lines"><path class="js-line" d="M453,338.12L404.75,338.46L402.07,337.95L380.63,337.95L377.95,342L361.86,342L359.18,337.95L211.76,337.78L209.08,334.41L187.63,333.73L184.95,333.56L171.55,333.56L168.87,283.28L155.47,283.28L117.94,321.08L0,321.08" style="vector-effect: none; fill: none; stroke: rgb(239, 85, 59); stroke-opacity: 1; stroke-width: 2px; opacity: 1;"/></g><g class="points"/><g class="text"/></g></g></g><g class="overplot"/><path class="xlines-above crisp" d="M0,0" style="fill: none;"/><path class="ylines-above crisp" d="M0,0" style="fill: none;"/><g class="overlines-above"/><g class="xaxislayer-above"><g class="xtick"><text text-anchor="middle" x="0" y="433" transform="translate(117.53,0)" style="font-family: 'Courier New'; font-size: 12px; fill: rgb(0, 0, 255); fill-opacity: 1; white-space: pre; opacity: 1;">Aug 2023</text></g><g class="xtick"><text text-anchor="middle" x="0" y="433" style="font-family: 'Courier New'; font-size: 12px; fill: rgb(0, 0, 255); fill-opacity: 1; white-space: pre; opacity: 1;" transform="translate(200.62,0)">Sep 2023</text></g><g class="xtick"><text text-anchor="middle" x="0" y="433" style="font-family: 'Courier New'; font-size: 12px; fill: rgb(0, 0, 255); fill-opacity: 1; white-space: pre; opacity: 1;" transform="translate(281.03999999999996,0)">Oct 2023</text></g><g class="xtick"><text text-anchor="middle" x="0" y="433" style="font-family: 'Courier New'; font-size: 12px; fill: rgb(0, 0, 255); fill-opacity: 1; white-space: pre; opacity: 1;" transform="translate(364.13,0)">Nov 2023</text></g><g class="xtick"><text text-anchor="middle" x="0" y="433" style="font-family: 'Courier New'; font-size: 12px; fill: rgb(0, 0, 255); fill-opacity: 1; white-space: pre; opacity: 1;" transform="translate(444.54,0)">Dec 2023</text></g><g class="xtick"><text text-anchor="middle" x="0" y="433" style="font-family: 'Courier New'; font-size: 12px; fill: rgb(0, 0, 255); fill-opacity: 1; white-space: pre; opacity: 1;" transform="translate(527.64,0)">Jan 2024</text></g></g><g class="yaxislayer-above"><g class="ytick"><text text-anchor="end" x="79" y="4.199999999999999" transform="translate(0,388.67)" style="font-family: 'Courier New'; font-size: 12px; fill: rgb(0, 0, 255); fill-opacity: 1; white-space: pre; opacity: 1;">2000</text></g><g class="ytick"><text text-anchor="end" x="79" y="4.199999999999999" style="font-family: 'Courier New'; font-size: 12px; fill: rgb(0, 0, 255); fill-opacity: 1; white-space: pre; opacity: 1;" transform="translate(0,304.28999999999996)">2500</text></g><g class="ytick"><text text-anchor="end" x="79" y="4.199999999999999" style="font-family: 'Courier New'; font-size: 12px; fill: rgb(0, 0, 255); fill-opacity: 1; white-space: pre; opacity: 1;" transform="translate(0,219.92)">3000</text></g><g class="ytick"><text text-anchor="end" x="79" y="4.199999999999999" style="font-family: 'Courier New'; font-size: 12px; fill: rgb(0, 0, 255); fill-opacity: 1; white-space: pre; opacity: 1;" transform="translate(0,135.54000000000002)">3500</text></g></g><g class="overaxes-above"/></g></g><g class="polarlayer"/><g class="smithlayer"/><g class="ternarylayer"/><g class="geolayer"/><g class="funnelarealayer"/><g class="pielayer"/><g class="iciclelayer"/><g class="treemaplayer"/><g class="sunburstlayer"/><g class="glimages"/><defs id="topdefs-5c04d2"><g class="clips"/><clipPath id="legend5c04d2"><rect width="146" height="67" x="0" y="0"/></clipPath></defs><g class="layer-above"><g class="imagelayer"/><g class="shapelayer"/></g><g class="infolayer"><g class="legend" pointer-events="all" transform="translate(542.06,60)"><rect class="bg" shape-rendering="crispEdges" style="stroke: rgb(68, 68, 68); stroke-opacity: 1; fill: rgb(255, 255, 255); fill-opacity: 1; stroke-width: 0px;" width="146" height="67" x="0" y="0"/><g class="scrollbox" transform="" clip-path="url(#legend5c04d2)"><text class="legendtitletext" text-anchor="start" x="2" y="18.2" style="font-family: 'Courier New'; font-size: 14px; fill: rgb(0, 128, 0); fill-opacity: 1; white-space: pre;">type</text><g class="groups" transform=""><g class="traces" transform="translate(0,32.7)" style="opacity: 1;"><text class="legendtext" text-anchor="start" x="40" y="4.680000000000001" style="font-family: 'Courier New'; font-size: 12px; fill: rgb(0, 0, 255); fill-opacity: 1; white-space: pre;"># of open data</text><g class="layers" style="opacity: 1;"><g class="legendfill"/><g class="legendlines"><path class="js-line" d="M5,0h30" style="fill: none; stroke: rgb(99, 110, 250); stroke-opacity: 1; stroke-width: 2px;"/></g><g class="legendsymbols"><g class="legendpoints"/></g></g><rect class="legendtoggle" x="0" y="-9.5" width="140.828125" height="19" style="fill: rgb(0, 0, 0); fill-opacity: 0;"/></g></g><g class="groups" transform=""><g class="traces" transform="translate(0,51.7)" style="opacity: 1;"><text class="legendtext" text-anchor="start" x="40" y="4.680000000000001" style="font-family: 'Courier New'; font-size: 12px; fill: rgb(0, 0, 255); fill-opacity: 1; white-space: pre;">Non geospatial</text><g class="layers" style="opacity: 1;"><g class="legendfill"/><g class="legendlines"><path class="js-line" d="M5,0h30" style="fill: none; stroke: rgb(239, 85, 59); stroke-opacity: 1; stroke-width: 2px;"/></g><g class="legendsymbols"><g class="legendpoints"/></g></g><rect class="legendtoggle" x="0" y="-9.5" width="140.828125" height="19" style="fill: rgb(0, 0, 0); fill-opacity: 0;"/></g></g></g><rect class="scrollbar" rx="20" ry="3" width="0" height="0" style="fill: rgb(128, 139, 164); fill-opacity: 1;" x="0" y="0"/></g><g class="g-gtitle"/><g class="g-xtitle"><text class="xtitle" x="306.5" y="461.3" text-anchor="middle" style="font-family: 'Courier New'; font-size: 14px; fill: rgb(0, 0, 255); opacity: 1; font-weight: normal; white-space: pre;">Date</text></g><g class="g-ytitle"><text class="ytitle" transform="rotate(-90,25.887500000000003,240)" x="25.887500000000003" y="240" text-anchor="middle" style="font-family: 'Courier New'; font-size: 14px; fill: rgb(0, 0, 255); opacity: 1; font-weight: normal; white-space: pre;">count</text></g></g></svg>