<svg class="main-svg" xmlns="http://www.w3.org/2000/svg" xmlns:xlink="http://www.w3.org/1999/xlink" width="700" height="500" style="" viewBox="0 0 700 500"><rect x="0" y="0" width="700" height="500" style="fill: rgb(255, 255, 255); fill-opacity: 1;"/><defs id="defs-022b05"><g class="clips"><clipPath id="clip022b05xyplot" class="plotclip"><rect width="453" height="360"/></clipPath><clipPath class="axesclip" id="clip022b05x"><rect x="80" y="0" width="453" height="500"/></clipPath><clipPath class="axesclip" id="clip022b05y"><rect x="0" y="60" width="700" height="360"/></clipPath><clipPath class="axesclip" id="clip022b05xy"><rect x="80" y="60" width="453" height="360"/></clipPath></g><g class="gradients"/><g class="patterns"/></defs><g class="bglayer"><rect class="bg" x="80" y="60" width="453" height="360" style="fill: rgb(229, 236, 246); fill-opacity: 1; stroke-width: 0;"/></g><g class="layer-below"><g class="imagelayer"/><g class="shapelayer"/></g><g class="cartesianlayer"><g class="subplot xy"><g class="layer-subplot"><g class="shapelayer"/><g class="imagelayer"/></g><g class="minor-gridlayer"><g class="x"/><g class="y"/></g><g class="gridlayer"><g class="x"><path class="xgrid crisp" transform="translate(154.51,0)" d="M0,60v360" style="stroke: rgb(255, 255, 255); stroke-opacity: 1; stroke-width: 1px;"/><path class="xgrid crisp" transform="translate(245.9,0)" d="M0,60v360" style="stroke: rgb(255, 255, 255); stroke-opacity: 1; stroke-width: 1px;"/><path class="xgrid crisp" transform="translate(336.3,0)" d="M0,60v360" style="stroke: rgb(255, 255, 255); stroke-opacity: 1; stroke-width: 1px;"/><path class="xgrid crisp" transform="translate(426.7,0)" d="M0,60v360" style="stroke: rgb(255, 255, 255); stroke-opacity: 1; stroke-width: 1px;"/><path class="xgrid crisp" transform="translate(518.1,0)" d="M0,60v360" style="stroke: rgb(255, 255, 255); stroke-opacity: 1; stroke-width: 1px;"/></g><g class="y"><path class="ygrid crisp" transform="translate(0,365.55)" d="M80,0h453" style="stroke: rgb(255, 255, 255); stroke-opacity: 1; stroke-width: 1px;"/><path class="ygrid crisp" transform="translate(0,329.09)" d="M80,0h453" style="stroke: rgb(255, 255, 255); stroke-opacity: 1; stroke-width: 1px;"/><path class="ygrid crisp" transform="translate(0,292.64)" d="M80,0h453" style="stroke: rgb(255, 255, 255); stroke-opacity: 1; stroke-width: 1px;"/><path class="ygrid crisp" transform="translate(0,256.19)" d="M80,0h453" style="stroke: rgb(255, 255, 255); stroke-opacity: 1; stroke-width: 1px;"/><path class="ygrid crisp" transform="translate(0,219.73)" d="M80,0h453" style="stroke: rgb(255, 255, 255); stroke-opacity: 1; stroke-width: 1px;"/><path class="ygrid crisp" transform="translate(0,183.28)" d="M80,0h453" style="stroke: rgb(255, 255, 255); stroke-opacity: 1; stroke-width: 1px;"/><path class="ygrid crisp" transform="translate(0,146.82)" d="M80,0h453" style="stroke: rgb(255, 255, 255); stroke-opacity: 1; stroke-width: 1px;"/><path class="ygrid crisp" transform="translate(0,110.37)" d="M80,0h453" style="stroke: rgb(255, 255, 255); stroke-opacity: 1; stroke-width: 1px;"/><path class="ygrid crisp" transform="translate(0,73.92)" d="M80,0h453" style="stroke: rgb(255, 255, 255); stroke-opacity: 1; stroke-width: 1px;"/></g></g><g class="zerolinelayer"><path class="yzl zl crisp" transform="translate(0,402)" d="M80,0h453" style="stroke: rgb(255, 255, 255); stroke-opacity: 1; stroke-width: 2px;"/></g><path class="xlines-below"/><path class="ylines-below"/><g class="overlines-below"/><g class="xaxislayer-below"/><g class="yaxislayer-below"/><g class="overaxes-below"/><g class="plot" transform="translate(80,60)" clip-path="url(#clip022b05xyplot)"><g class="scatterlayer mlayer"><g class="trace scatter traceefefb3" style="stroke-miterlimit: 2; opacity: 1;"><g class="fills"/><g class="errorbars"/><g class="lines"><path class="js-line" d="M453,288.12L447.04,288.85L446.05,289.94L435.12,290.31L434.13,291.48L428.16,292.2L427.17,292.28L420.22,293.44L419.22,293.74L418.23,295.85L417.24,296.07L412.27,296L411.28,296.87L406.31,297.23L405.32,300.08L403.33,300.66L402.34,300.81L393.39,301.1L392.4,301.9L390.41,304.6L389.42,304.74L371.54,306.06L370.55,306.93L368.56,307.44L367.57,307.51L364.59,307.59L363.59,309.41L359.62,310.14L358.63,310.58L352.66,311.23L351.67,311.31L334.78,314.3L333.79,314.51L324.85,315.75L323.86,316.56L316.9,317.58L315.91,318.45L314.91,321L313.92,321.37L312.93,321.59L311.93,323.85L308.95,324.43L307.96,324.72L305.97,325.6L304.98,325.6L302.99,325.67L302,327.13L298.03,328.37L297.03,328.37L295.05,328.8L294.05,330.19L292.07,330.77L291.07,330.77L286.11,330.77L285.11,331.28L281.14,331.36L279.15,337.99L274.18,338.14L273.19,340.1L271.2,340.18L255.31,18.07L253.32,18L252.33,19.46L251.34,20.04L250.34,21.72L247.36,22.52L246.37,23.4L244.38,26.6L243.39,37.47L239.41,37.76L238.42,39.65L236.43,39.07L235.44,39.22L232.46,39.07L231.47,40.31L225.51,40.97L224.51,44.68L223.52,44.76L222.53,46.43L217.56,46.58L215.57,47.09L212.59,47.53L211.6,47.96L209.61,50.95L208.62,51.03L205.64,51.68L204.64,52.05L202.66,50.95L201.66,51.32L192.72,52.05L191.73,52.12L190.74,52.34L189.74,53.36L188.75,55.11L187.76,55.11L184.78,55.4L183.78,54.38L182.79,54.38L181.8,56.93L178.82,57.15L177.82,61.82L162.92,62.04L161.93,63.57L160.93,64.88L159.94,64.88L155.97,64.51L154.97,65.97L152.99,66.85L151.99,66.99L151,66.99L150.01,67.87L147.03,69.04L146.03,69.04L142.06,69.33L141.07,74.36L140.07,76.62L139.08,76.62L134.11,77.2L133.12,75.6L132.13,77.71L131.13,77.71L126.16,78.29L125.17,78.59L121.2,78.73L120.2,81.72L114.24,82.01L113.25,119.2L107.29,119.49L106.3,120L105.3,121.46L104.31,121.46L95.37,122.48L94.38,123.06L93.38,123.42L92.39,124.74L91.39,124.88L90.4,126.7L88.41,127.29L87.42,125.1L86.43,127.29L85.43,127.51L82.45,127.87L81.46,127.87L78.48,128.31L77.49,132.25L70.53,132.97L69.54,133.05L63.58,133.34L62.59,116.42L58.61,116.5L57.62,118.76L43.71,121.67L42.72,124.08L35.76,124.23L34.77,124.3L29.8,124.81L28.81,125.25L22.85,125.25L0.99,128.96L0,129.04" style="vector-effect: none; fill: none; stroke: rgb(99, 110, 250); stroke-opacity: 1; stroke-width: 2px; opacity: 1;"/></g><g class="points"/><g class="text"/></g><g class="trace scatter trace7ccde7" style="stroke-miterlimit: 2; opacity: 1;"><g class="fills"/><g class="errorbars"/><g class="lines"><path class="js-line" d="M453,320.93L379.49,320.93L378.49,325.6L334.78,325.6L333.79,342L271.2,342L255.31,200.56L246.37,200.49L245.38,201.51L239.41,201.65L238.42,201.65L236.43,200.56L235.44,200.56L212.59,200.49L211.6,200.27L207.63,200.49L206.63,200.49L189.74,200.27L188.75,201.43L184.78,201.43L183.78,200.27L141.07,200.2L140.07,201.95L134.11,201.95L133.12,200.2L78.48,200.12L77.49,198.66L63.58,198.3L62.59,176.57L57.62,176.57L43.71,192.9L0,192.9" style="vector-effect: none; fill: none; stroke: rgb(239, 85, 59); stroke-opacity: 1; stroke-width: 2px; opacity: 1;"/></g><g class="points"/><g class="text"/></g></g></g><g class="overplot"/><path class="xlines-above crisp" d="M0,0" style="fill: none;"/><path class="ylines-above crisp" d="M0,0" style="fill: none;"/><g class="overlines-above"/><g class="xaxislayer-above"><g class="xtick"><text text-anchor="middle" x="0" y="433" transform="translate(154.51,0)" style="font-family: 'Courier New'; font-size: 12px; fill: rgb(0, 0, 255); fill-opacity: 1; white-space: pre; opacity: 1;">Oct 2023</text></g><g class="xtick"><text text-anchor="middle" x="0" y="433" style="font-family: 'Courier New'; font-size: 12px; fill: rgb(0, 0, 255); fill-opacity: 1; white-space: pre; opacity: 1;" transform="translate(245.9,0)">Jan 2024</text></g><g class="xtick"><text text-anchor="middle" x="0" y="433" style="font-family: 'Courier New'; font-size: 12px; fill: rgb(0, 0, 255); fill-opacity: 1; white-space: pre; opacity: 1;" transform="translate(336.3,0)">Apr 2024</text></g><g class="xtick"><text text-anchor="middle" x="0" y="433" style="font-family: 'Courier New'; font-size: 12px; fill: rgb(0, 0, 255); fill-opacity: 1; white-space: pre; opacity: 1;" transform="translate(426.7,0)">Jul 2024</text></g><g class="xtick"><text text-anchor="middle" x="0" y="433" style="font-family: 'Courier New'; font-size: 12px; fill: rgb(0, 0, 255); fill-opacity: 1; white-space: pre; opacity: 1;" transform="translate(518.1,0)">Oct 2024</text></g></g><g class="yaxislayer-above"><g class="ytick"><text text-anchor="end" x="79" y="4.199999999999999" transform="translate(0,402)" style="font-family: 'Courier New'; font-size: 12px; fill: rgb(0, 0, 255); fill-opacity: 1; white-space: pre; opacity: 1;">0</text></g><g class="ytick"><text text-anchor="end" x="79" y="4.199999999999999" style="font-family: 'Courier New'; font-size: 12px; fill: rgb(0, 0, 255); fill-opacity: 1; white-space: pre; opacity: 1;" transform="translate(0,365.55)">500</text></g><g class="ytick"><text text-anchor="end" x="79" y="4.199999999999999" style="font-family: 'Courier New'; font-size: 12px; fill: rgb(0, 0, 255); fill-opacity: 1; white-space: pre; opacity: 1;" transform="translate(0,329.09)">1000</text></g><g class="ytick"><text text-anchor="end" x="79" y="4.199999999999999" style="font-family: 'Courier New'; font-size: 12px; fill: rgb(0, 0, 255); fill-opacity: 1; white-space: pre; opacity: 1;" transform="translate(0,292.64)">1500</text></g><g class="ytick"><text text-anchor="end" x="79" y="4.199999999999999" style="font-family: 'Courier New'; font-size: 12px; fill: rgb(0, 0, 255); fill-opacity: 1; white-space: pre; opacity: 1;" transform="translate(0,256.19)">2000</text></g><g class="ytick"><text text-anchor="end" x="79" y="4.199999999999999" style="font-family: 'Courier New'; font-size: 12px; fill: rgb(0, 0, 255); fill-opacity: 1; white-space: pre; opacity: 1;" transform="translate(0,219.73)">2500</text></g><g class="ytick"><text text-anchor="end" x="79" y="4.199999999999999" style="font-family: 'Courier New'; font-size: 12px; fill: rgb(0, 0, 255); fill-opacity: 1; white-space: pre; opacity: 1;" transform="translate(0,183.28)">3000</text></g><g class="ytick"><text text-anchor="end" x="79" y="4.199999999999999" style="font-family: 'Courier New'; font-size: 12px; fill: rgb(0, 0, 255); fill-opacity: 1; white-space: pre; opacity: 1;" transform="translate(0,146.82)">3500</text></g><g class="ytick"><text text-anchor="end" x="79" y="4.199999999999999" style="font-family: 'Courier New'; font-size: 12px; fill: rgb(0, 0, 255); fill-opacity: 1; white-space: pre; opacity: 1;" transform="translate(0,110.37)">4000</text></g><g class="ytick"><text text-anchor="end" x="79" y="4.199999999999999" style="font-family: 'Courier New'; font-size: 12px; fill: rgb(0, 0, 255); fill-opacity: 1; white-space: pre; opacity: 1;" transform="translate(0,73.92)">4500</text></g></g><g class="overaxes-above"/></g></g><g class="polarlayer"/><g class="smithlayer"/><g class="ternarylayer"/><g class="geolayer"/><g class="funnelarealayer"/><g class="pielayer"/><g class="iciclelayer"/><g class="treemaplayer"/><g class="sunburstlayer"/><g class="glimages"/><defs id="topdefs-022b05"><g class="clips"/><clipPath id="legend022b05"><rect width="146" height="67" x="0" y="0"/></clipPath></defs><g class="layer-above"><g class="imagelayer"/><g class="shapelayer"/></g><g class="infolayer"><g class="legend" pointer-events="all" transform="translate(542.06,60)"><rect class="bg" shape-rendering="crispEdges" style="stroke: rgb(68, 68, 68); stroke-opacity: 1; fill: rgb(255, 255, 255); fill-opacity: 1; stroke-width: 0px;" width="146" height="67" x="0" y="0"/><g class="scrollbox" transform="" clip-path="url(#legend022b05)"><text class="legendtitletext" text-anchor="start" x="2" y="18.2" style="font-family: 'Courier New'; font-size: 14px; fill: rgb(0, 128, 0); fill-opacity: 1; white-space: pre;">type</text><g class="groups" transform=""><g class="traces" transform="translate(0,32.7)" style="opacity: 1;"><text class="legendtext" text-anchor="start" x="40" y="4.680000000000001" style="font-family: 'Courier New'; font-size: 12px; fill: rgb(0, 0, 255); fill-opacity: 1; white-space: pre;"># of open data</text><g class="layers" style="opacity: 1;"><g class="legendfill"/><g class="legendlines"><path class="js-line" d="M5,0h30" style="fill: none; stroke: rgb(99, 110, 250); stroke-opacity: 1; stroke-width: 2px;"/></g><g class="legendsymbols"><g class="legendpoints"/></g></g><rect class="legendtoggle" x="0" y="-9.5" width="140.828125" height="19" style="fill: rgb(0, 0, 0); fill-opacity: 0;"/></g></g><g class="groups" transform=""><g class="traces" transform="translate(0,51.7)" style="opacity: 1;"><text class="legendtext" text-anchor="start" x="40" y="4.680000000000001" style="font-family: 'Courier New'; font-size: 12px; fill: rgb(0, 0, 255); fill-opacity: 1; white-space: pre;">Non geospatial</text><g class="layers" style="opacity: 1;"><g class="legendfill"/><g class="legendlines"><path class="js-line" d="M5,0h30" style="fill: none; stroke: rgb(239, 85, 59); stroke-opacity: 1; stroke-width: 2px;"/></g><g class="legendsymbols"><g class="legendpoints"/></g></g><rect class="legendtoggle" x="0" y="-9.5" width="140.828125" height="19" style="fill: rgb(0, 0, 0); fill-opacity: 0;"/></g></g></g><rect class="scrollbar" rx="20" ry="3" width="0" height="0" style="fill: rgb(128, 139, 164); fill-opacity: 1;" x="0" y="0"/></g><g class="g-gtitle"/><g class="g-xtitle"><text class="xtitle" x="306.5" y="461.3" text-anchor="middle" style="font-family: 'Courier New'; font-size: 14px; fill: rgb(0, 0, 255); opacity: 1; font-weight: normal; white-space: pre;">Date</text></g><g class="g-ytitle"><text class="ytitle" transform="rotate(-90,25.887500000000003,240)" x="25.887500000000003" y="240" text-anchor="middle" style="font-family: 'Courier New'; font-size: 14px; fill: rgb(0, 0, 255); opacity: 1; font-weight: normal; white-space: pre;">count</text></g></g></svg>