<svg class="main-svg" xmlns="http://www.w3.org/2000/svg" xmlns:xlink="http://www.w3.org/1999/xlink" width="700" height="500" style="" viewBox="0 0 700 500"><rect x="0" y="0" width="700" height="500" style="fill: rgb(255, 255, 255); fill-opacity: 1;"/><defs id="defs-216089"><g class="clips"><clipPath id="clip216089xyplot" class="plotclip"><rect width="453" height="360"/></clipPath><clipPath class="axesclip" id="clip216089x"><rect x="80" y="0" width="453" height="500"/></clipPath><clipPath class="axesclip" id="clip216089y"><rect x="0" y="60" width="700" height="360"/></clipPath><clipPath class="axesclip" id="clip216089xy"><rect x="80" y="60" width="453" height="360"/></clipPath></g><g class="gradients"/><g class="patterns"/></defs><g class="bglayer"><rect class="bg" x="80" y="60" width="453" height="360" style="fill: rgb(229, 236, 246); fill-opacity: 1; stroke-width: 0;"/></g><g class="layer-below"><g class="imagelayer"/><g class="shapelayer"/></g><g class="cartesianlayer"><g class="subplot xy"><g class="layer-subplot"><g class="shapelayer"/><g class="imagelayer"/></g><g class="minor-gridlayer"><g class="x"/><g class="y"/></g><g class="gridlayer"><g class="x"><path class="xgrid crisp" transform="translate(171.41,0)" d="M0,60v360" style="stroke: rgb(255, 255, 255); stroke-opacity: 1; stroke-width: 1px;"/><path class="xgrid crisp" transform="translate(295.33000000000004,0)" d="M0,60v360" style="stroke: rgb(255, 255, 255); stroke-opacity: 1; stroke-width: 1px;"/><path class="xgrid crisp" transform="translate(419.24,0)" d="M0,60v360" style="stroke: rgb(255, 255, 255); stroke-opacity: 1; stroke-width: 1px;"/></g><g class="y"><path class="ygrid crisp" transform="translate(0,390.04)" d="M80,0h453" style="stroke: rgb(255, 255, 255); stroke-opacity: 1; stroke-width: 1px;"/><path class="ygrid crisp" transform="translate(0,314.34000000000003)" d="M80,0h453" style="stroke: rgb(255, 255, 255); stroke-opacity: 1; stroke-width: 1px;"/><path class="ygrid crisp" transform="translate(0,238.64)" d="M80,0h453" style="stroke: rgb(255, 255, 255); stroke-opacity: 1; stroke-width: 1px;"/><path class="ygrid crisp" transform="translate(0,162.94)" d="M80,0h453" style="stroke: rgb(255, 255, 255); stroke-opacity: 1; stroke-width: 1px;"/><path class="ygrid crisp" transform="translate(0,87.24)" d="M80,0h453" style="stroke: rgb(255, 255, 255); stroke-opacity: 1; stroke-width: 1px;"/></g></g><g class="zerolinelayer"/><path class="xlines-below"/><path class="ylines-below"/><g class="overlines-below"/><g class="xaxislayer-below"/><g class="yaxislayer-below"/><g class="overaxes-below"/><g class="plot" transform="translate(80,60)" clip-path="url(#clip216089xyplot)"><g class="scatterlayer mlayer"><g class="trace scatter trace41ecf3" style="stroke-miterlimit: 2; opacity: 1;"><g class="fills"/><g class="errorbars"/><g class="lines"><path class="js-line" d="M453,19.06L448.94,19.36L446.91,18L444.87,19.36L440.81,20.42L436.75,20.42L434.72,21.33L432.69,22.24L430.65,26.63L428.62,28.45L426.59,28.6L422.53,28.6L420.5,29.96L418.47,30.72L416.43,28.45L404.25,29.2L402.22,30.26L390.03,31.32L388,33.44L385.96,37.08L383.93,37.08L377.84,37.68L375.81,35.56L373.78,35.56L371.74,40.86L367.68,41.32L365.65,41.32L363.62,51.01L361.59,51.01L349.4,51.16L347.37,51.16L333.15,51.46L331.12,54.64L329.09,57.36L327.05,57.36L320.96,57.97L318.93,56.61L316.9,59.64L314.87,61.3L308.77,61.76L306.74,63.57L304.71,64.78L300.65,65.99L290.49,66.6L288.46,77.05L286.43,81.74L284.39,81.74L274.24,82.95L272.21,79.62L270.17,84.01L268.14,84.01L264.08,84.16L262.05,84.77L253.92,85.83L251.89,85.83L247.83,86.13L245.8,92.34L233.61,92.94L231.58,170.16L219.39,170.76L217.36,171.82L215.33,174.85L213.3,174.85L205.17,175L203.14,176.37L195.01,176.97L192.98,178.18L190.95,178.94L188.92,181.67L186.89,181.97L184.86,185.75L182.83,186.96L180.79,186.96L178.76,182.42L176.73,186.96L168.61,188.18L166.57,188.18L162.51,188.48L160.48,189.08L158.45,197.26L156.42,197.26L150.32,197.26L148.29,198.47L138.13,199.08L136.1,199.23L130.01,199.53L127.98,164.41L119.85,164.56L117.82,169.25L89.38,175.31L87.35,180.3L77.19,180.3L75.16,180.3L69.07,180.76L67.04,180.76L58.91,182.73L56.88,182.73L46.72,182.73L2.03,190.45L0,190.6" style="vector-effect: none; fill: none; stroke: rgb(99, 110, 250); stroke-opacity: 1; stroke-width: 2px; opacity: 1;"/></g><g class="points"/><g class="text"/></g><g class="trace scatter traced641a3" style="stroke-miterlimit: 2; opacity: 1;"><g class="fills"/><g class="errorbars"/><g class="lines"><path class="js-line" d="M453,340.18L448.94,340.18L446.91,338.97L388,338.52L385.96,340.94L377.84,340.94L375.81,338.52L288.46,338.37L286.43,342L274.24,342L272.21,338.37L160.48,338.21L158.45,335.19L142.2,334.58L140.17,334.43L130.01,334.43L127.98,289.31L117.82,289.31L89.38,323.23L0,323.23" style="vector-effect: none; fill: none; stroke: rgb(239, 85, 59); stroke-opacity: 1; stroke-width: 2px; opacity: 1;"/></g><g class="points"/><g class="text"/></g></g></g><g class="overplot"/><path class="xlines-above crisp" d="M0,0" style="fill: none;"/><path class="ylines-above crisp" d="M0,0" style="fill: none;"/><g class="overlines-above"/><g class="xaxislayer-above"><g class="xtick"><text text-anchor="middle" x="0" y="433" transform="translate(171.41,0)" style="font-family: 'Courier New'; font-size: 12px; fill: rgb(0, 0, 255); fill-opacity: 1; white-space: pre; opacity: 1;">Sep 2023</text></g><g class="xtick"><text text-anchor="middle" x="0" y="433" style="font-family: 'Courier New'; font-size: 12px; fill: rgb(0, 0, 255); fill-opacity: 1; white-space: pre; opacity: 1;" transform="translate(295.33000000000004,0)">Nov 2023</text></g><g class="xtick"><text text-anchor="middle" x="0" y="433" style="font-family: 'Courier New'; font-size: 12px; fill: rgb(0, 0, 255); fill-opacity: 1; white-space: pre; opacity: 1;" transform="translate(419.24,0)">Jan 2024</text></g></g><g class="yaxislayer-above"><g class="ytick"><text text-anchor="end" x="79" y="4.199999999999999" transform="translate(0,390.04)" style="font-family: 'Courier New'; font-size: 12px; fill: rgb(0, 0, 255); fill-opacity: 1; white-space: pre; opacity: 1;">2000</text></g><g class="ytick"><text text-anchor="end" x="79" y="4.199999999999999" style="font-family: 'Courier New'; font-size: 12px; fill: rgb(0, 0, 255); fill-opacity: 1; white-space: pre; opacity: 1;" transform="translate(0,314.34000000000003)">2500</text></g><g class="ytick"><text text-anchor="end" x="79" y="4.199999999999999" style="font-family: 'Courier New'; font-size: 12px; fill: rgb(0, 0, 255); fill-opacity: 1; white-space: pre; opacity: 1;" transform="translate(0,238.64)">3000</text></g><g class="ytick"><text text-anchor="end" x="79" y="4.199999999999999" style="font-family: 'Courier New'; font-size: 12px; fill: rgb(0, 0, 255); fill-opacity: 1; white-space: pre; opacity: 1;" transform="translate(0,162.94)">3500</text></g><g class="ytick"><text text-anchor="end" x="79" y="4.199999999999999" style="font-family: 'Courier New'; font-size: 12px; fill: rgb(0, 0, 255); fill-opacity: 1; white-space: pre; opacity: 1;" transform="translate(0,87.24)">4000</text></g></g><g class="overaxes-above"/></g></g><g class="polarlayer"/><g class="smithlayer"/><g class="ternarylayer"/><g class="geolayer"/><g class="funnelarealayer"/><g class="pielayer"/><g class="iciclelayer"/><g class="treemaplayer"/><g class="sunburstlayer"/><g class="glimages"/><defs id="topdefs-216089"><g class="clips"/><clipPath id="legend216089"><rect width="146" height="67" x="0" y="0"/></clipPath></defs><g class="layer-above"><g class="imagelayer"/><g class="shapelayer"/></g><g class="infolayer"><g class="legend" pointer-events="all" transform="translate(542.06,60)"><rect class="bg" shape-rendering="crispEdges" style="stroke: rgb(68, 68, 68); stroke-opacity: 1; fill: rgb(255, 255, 255); fill-opacity: 1; stroke-width: 0px;" width="146" height="67" x="0" y="0"/><g class="scrollbox" transform="" clip-path="url(#legend216089)"><text class="legendtitletext" text-anchor="start" x="2" y="18.2" style="font-family: 'Courier New'; font-size: 14px; fill: rgb(0, 128, 0); fill-opacity: 1; white-space: pre;">type</text><g class="groups" transform=""><g class="traces" transform="translate(0,32.7)" style="opacity: 1;"><text class="legendtext" text-anchor="start" x="40" y="4.680000000000001" style="font-family: 'Courier New'; font-size: 12px; fill: rgb(0, 0, 255); fill-opacity: 1; white-space: pre;"># of open data</text><g class="layers" style="opacity: 1;"><g class="legendfill"/><g class="legendlines"><path class="js-line" d="M5,0h30" style="fill: none; stroke: rgb(99, 110, 250); stroke-opacity: 1; stroke-width: 2px;"/></g><g class="legendsymbols"><g class="legendpoints"/></g></g><rect class="legendtoggle" x="0" y="-9.5" width="140.828125" height="19" style="fill: rgb(0, 0, 0); fill-opacity: 0;"/></g></g><g class="groups" transform=""><g class="traces" transform="translate(0,51.7)" style="opacity: 1;"><text class="legendtext" text-anchor="start" x="40" y="4.680000000000001" style="font-family: 'Courier New'; font-size: 12px; fill: rgb(0, 0, 255); fill-opacity: 1; white-space: pre;">Non geospatial</text><g class="layers" style="opacity: 1;"><g class="legendfill"/><g class="legendlines"><path class="js-line" d="M5,0h30" style="fill: none; stroke: rgb(239, 85, 59); stroke-opacity: 1; stroke-width: 2px;"/></g><g class="legendsymbols"><g class="legendpoints"/></g></g><rect class="legendtoggle" x="0" y="-9.5" width="140.828125" height="19" style="fill: rgb(0, 0, 0); fill-opacity: 0;"/></g></g></g><rect class="scrollbar" rx="20" ry="3" width="0" height="0" style="fill: rgb(128, 139, 164); fill-opacity: 1;" x="0" y="0"/></g><g class="g-gtitle"/><g class="g-xtitle"><text class="xtitle" x="306.5" y="461.3" text-anchor="middle" style="font-family: 'Courier New'; font-size: 14px; fill: rgb(0, 0, 255); opacity: 1; font-weight: normal; white-space: pre;">Date</text></g><g class="g-ytitle"><text class="ytitle" transform="rotate(-90,25.887500000000003,240)" x="25.887500000000003" y="240" text-anchor="middle" style="font-family: 'Courier New'; font-size: 14px; fill: rgb(0, 0, 255); opacity: 1; font-weight: normal; white-space: pre;">count</text></g></g></svg>