<svg class="main-svg" xmlns="http://www.w3.org/2000/svg" xmlns:xlink="http://www.w3.org/1999/xlink" width="700" height="500" style="" viewBox="0 0 700 500"><rect x="0" y="0" width="700" height="500" style="fill: rgb(255, 255, 255); fill-opacity: 1;"/><defs id="defs-7cf4fe"><g class="clips"><clipPath id="clip7cf4fexyplot" class="plotclip"><rect width="453" height="360"/></clipPath><clipPath class="axesclip" id="clip7cf4fex"><rect x="80" y="0" width="453" height="500"/></clipPath><clipPath class="axesclip" id="clip7cf4fey"><rect x="0" y="60" width="700" height="360"/></clipPath><clipPath class="axesclip" id="clip7cf4fexy"><rect x="80" y="60" width="453" height="360"/></clipPath></g><g class="gradients"/><g class="patterns"/></defs><g class="bglayer"><rect class="bg" x="80" y="60" width="453" height="360" style="fill: rgb(229, 236, 246); fill-opacity: 1; stroke-width: 0;"/></g><g class="layer-below"><g class="imagelayer"/><g class="shapelayer"/></g><g class="cartesianlayer"><g class="subplot xy"><g class="layer-subplot"><g class="shapelayer"/><g class="imagelayer"/></g><g class="minor-gridlayer"><g class="x"/><g class="y"/></g><g class="gridlayer"><g class="x"><path class="xgrid crisp" transform="translate(125.96000000000001,0)" d="M0,60v360" style="stroke: rgb(255, 255, 255); stroke-opacity: 1; stroke-width: 1px;"/><path class="xgrid crisp" transform="translate(227.72,0)" d="M0,60v360" style="stroke: rgb(255, 255, 255); stroke-opacity: 1; stroke-width: 1px;"/><path class="xgrid crisp" transform="translate(326.2,0)" d="M0,60v360" style="stroke: rgb(255, 255, 255); stroke-opacity: 1; stroke-width: 1px;"/><path class="xgrid crisp" transform="translate(427.96,0)" d="M0,60v360" style="stroke: rgb(255, 255, 255); stroke-opacity: 1; stroke-width: 1px;"/><path class="xgrid crisp" transform="translate(526.4300000000001,0)" d="M0,60v360" style="stroke: rgb(255, 255, 255); stroke-opacity: 1; stroke-width: 1px;"/></g><g class="y"><path class="ygrid crisp" transform="translate(0,387.23)" d="M80,0h453" style="stroke: rgb(255, 255, 255); stroke-opacity: 1; stroke-width: 1px;"/><path class="ygrid crisp" transform="translate(0,349.84)" d="M80,0h453" style="stroke: rgb(255, 255, 255); stroke-opacity: 1; stroke-width: 1px;"/><path class="ygrid crisp" transform="translate(0,312.45)" d="M80,0h453" style="stroke: rgb(255, 255, 255); stroke-opacity: 1; stroke-width: 1px;"/><path class="ygrid crisp" transform="translate(0,275.05)" d="M80,0h453" style="stroke: rgb(255, 255, 255); stroke-opacity: 1; stroke-width: 1px;"/><path class="ygrid crisp" transform="translate(0,237.66)" d="M80,0h453" style="stroke: rgb(255, 255, 255); stroke-opacity: 1; stroke-width: 1px;"/><path class="ygrid crisp" transform="translate(0,200.27)" d="M80,0h453" style="stroke: rgb(255, 255, 255); stroke-opacity: 1; stroke-width: 1px;"/><path class="ygrid crisp" transform="translate(0,162.88)" d="M80,0h453" style="stroke: rgb(255, 255, 255); stroke-opacity: 1; stroke-width: 1px;"/><path class="ygrid crisp" transform="translate(0,125.49)" d="M80,0h453" style="stroke: rgb(255, 255, 255); stroke-opacity: 1; stroke-width: 1px;"/><path class="ygrid crisp" transform="translate(0,88.1)" d="M80,0h453" style="stroke: rgb(255, 255, 255); stroke-opacity: 1; stroke-width: 1px;"/></g></g><g class="zerolinelayer"/><path class="xlines-below"/><path class="ylines-below"/><g class="overlines-below"/><g class="xaxislayer-below"/><g class="yaxislayer-below"/><g class="overaxes-below"/><g class="plot" transform="translate(80,60)" clip-path="url(#clip7cf4fexyplot)"><g class="scatterlayer mlayer"><g class="trace scatter trace51fd20" style="stroke-miterlimit: 2; opacity: 1;"><g class="fills"/><g class="errorbars"/><g class="lines"><path class="js-line" d="M453,20.99L443.15,22.11L439.87,18L436.59,23.42L433.3,23.42L426.74,23.61L423.46,24.36L413.61,25.67L410.33,25.67L400.48,26.04L397.2,33.7L377.5,34.45L374.22,129.8L354.52,130.55L351.24,131.86L347.96,135.6L344.67,135.6L331.54,135.78L328.26,137.47L315.13,138.21L311.85,139.71L308.57,140.65L305.28,144.01L302,144.38L298.72,149.06L295.43,150.55L292.15,150.55L288.87,144.95L285.59,150.55L275.74,152.05L272.46,152.05L262.61,152.42L259.33,153.17L256.04,163.27L252.76,163.27L242.91,163.27L239.63,164.76L223.22,165.51L219.93,165.7L210.09,166.07L206.8,122.7L193.67,122.88L190.39,128.68L144.43,136.16L141.15,142.33L128.02,142.14L124.74,142.33L108.33,142.89L105.04,143.64L98.48,144.2L95.2,145.32L75.5,145.32L3.28,154.85L0,155.04" style="vector-effect: none; fill: none; stroke: rgb(99, 110, 250); stroke-opacity: 1; stroke-width: 2px; opacity: 1;"/></g><g class="points"/><g class="text"/></g><g class="trace scatter tracee6f4f3" style="stroke-miterlimit: 2; opacity: 1;"><g class="fills"/><g class="errorbars"/><g class="lines"><path class="js-line" d="M453,342L443.15,342L439.87,337.51L259.33,337.33L256.04,333.59L229.78,332.84L226.5,332.65L210.09,332.65L206.8,276.94L190.39,276.94L144.43,318.82L0,318.82" style="vector-effect: none; fill: none; stroke: rgb(239, 85, 59); stroke-opacity: 1; stroke-width: 2px; opacity: 1;"/></g><g class="points"/><g class="text"/></g></g></g><g class="overplot"/><path class="xlines-above crisp" d="M0,0" style="fill: none;"/><path class="ylines-above crisp" d="M0,0" style="fill: none;"/><g class="overlines-above"/><g class="xaxislayer-above"><g class="xtick"><text text-anchor="middle" x="0" y="433" transform="translate(125.96000000000001,0)" style="font-family: 'Courier New'; font-size: 12px; fill: rgb(0, 0, 255); fill-opacity: 1; white-space: pre; opacity: 1;">Aug 2023</text></g><g class="xtick"><text text-anchor="middle" x="0" y="433" style="font-family: 'Courier New'; font-size: 12px; fill: rgb(0, 0, 255); fill-opacity: 1; white-space: pre; opacity: 1;" transform="translate(227.72,0)">Sep 2023</text></g><g class="xtick"><text text-anchor="middle" x="0" y="433" style="font-family: 'Courier New'; font-size: 12px; fill: rgb(0, 0, 255); fill-opacity: 1; white-space: pre; opacity: 1;" transform="translate(326.2,0)">Oct 2023</text></g><g class="xtick"><text text-anchor="middle" x="0" y="433" style="font-family: 'Courier New'; font-size: 12px; fill: rgb(0, 0, 255); fill-opacity: 1; white-space: pre; opacity: 1;" transform="translate(427.96,0)">Nov 2023</text></g><g class="xtick"><text text-anchor="middle" x="0" y="433" style="font-family: 'Courier New'; font-size: 12px; fill: rgb(0, 0, 255); fill-opacity: 1; white-space: pre; opacity: 1;" transform="translate(526.4300000000001,0)">Dec 2023</text></g></g><g class="yaxislayer-above"><g class="ytick"><text text-anchor="end" x="79" y="4.199999999999999" transform="translate(0,387.23)" style="font-family: 'Courier New'; font-size: 12px; fill: rgb(0, 0, 255); fill-opacity: 1; white-space: pre; opacity: 1;">2000</text></g><g class="ytick"><text text-anchor="end" x="79" y="4.199999999999999" style="font-family: 'Courier New'; font-size: 12px; fill: rgb(0, 0, 255); fill-opacity: 1; white-space: pre; opacity: 1;" transform="translate(0,349.84)">2200</text></g><g class="ytick"><text text-anchor="end" x="79" y="4.199999999999999" style="font-family: 'Courier New'; font-size: 12px; fill: rgb(0, 0, 255); fill-opacity: 1; white-space: pre; opacity: 1;" transform="translate(0,312.45)">2400</text></g><g class="ytick"><text text-anchor="end" x="79" y="4.199999999999999" style="font-family: 'Courier New'; font-size: 12px; fill: rgb(0, 0, 255); fill-opacity: 1; white-space: pre; opacity: 1;" transform="translate(0,275.05)">2600</text></g><g class="ytick"><text text-anchor="end" x="79" y="4.199999999999999" style="font-family: 'Courier New'; font-size: 12px; fill: rgb(0, 0, 255); fill-opacity: 1; white-space: pre; opacity: 1;" transform="translate(0,237.66)">2800</text></g><g class="ytick"><text text-anchor="end" x="79" y="4.199999999999999" style="font-family: 'Courier New'; font-size: 12px; fill: rgb(0, 0, 255); fill-opacity: 1; white-space: pre; opacity: 1;" transform="translate(0,200.27)">3000</text></g><g class="ytick"><text text-anchor="end" x="79" y="4.199999999999999" style="font-family: 'Courier New'; font-size: 12px; fill: rgb(0, 0, 255); fill-opacity: 1; white-space: pre; opacity: 1;" transform="translate(0,162.88)">3200</text></g><g class="ytick"><text text-anchor="end" x="79" y="4.199999999999999" style="font-family: 'Courier New'; font-size: 12px; fill: rgb(0, 0, 255); fill-opacity: 1; white-space: pre; opacity: 1;" transform="translate(0,125.49)">3400</text></g><g class="ytick"><text text-anchor="end" x="79" y="4.199999999999999" style="font-family: 'Courier New'; font-size: 12px; fill: rgb(0, 0, 255); fill-opacity: 1; white-space: pre; opacity: 1;" transform="translate(0,88.1)">3600</text></g></g><g class="overaxes-above"/></g></g><g class="polarlayer"/><g class="smithlayer"/><g class="ternarylayer"/><g class="geolayer"/><g class="funnelarealayer"/><g class="pielayer"/><g class="iciclelayer"/><g class="treemaplayer"/><g class="sunburstlayer"/><g class="glimages"/><defs id="topdefs-7cf4fe"><g class="clips"/><clipPath id="legend7cf4fe"><rect width="146" height="67" x="0" y="0"/></clipPath></defs><g class="layer-above"><g class="imagelayer"/><g class="shapelayer"/></g><g class="infolayer"><g class="legend" pointer-events="all" transform="translate(542.06,60)"><rect class="bg" shape-rendering="crispEdges" style="stroke: rgb(68, 68, 68); stroke-opacity: 1; fill: rgb(255, 255, 255); fill-opacity: 1; stroke-width: 0px;" width="146" height="67" x="0" y="0"/><g class="scrollbox" transform="" clip-path="url(#legend7cf4fe)"><text class="legendtitletext" text-anchor="start" x="2" y="18.2" style="font-family: 'Courier New'; font-size: 14px; fill: rgb(0, 128, 0); fill-opacity: 1; white-space: pre;">type</text><g class="groups" transform=""><g class="traces" transform="translate(0,32.7)" style="opacity: 1;"><text class="legendtext" text-anchor="start" x="40" y="4.680000000000001" style="font-family: 'Courier New'; font-size: 12px; fill: rgb(0, 0, 255); fill-opacity: 1; white-space: pre;"># of open data</text><g class="layers" style="opacity: 1;"><g class="legendfill"/><g class="legendlines"><path class="js-line" d="M5,0h30" style="fill: none; stroke: rgb(99, 110, 250); stroke-opacity: 1; stroke-width: 2px;"/></g><g class="legendsymbols"><g class="legendpoints"/></g></g><rect class="legendtoggle" x="0" y="-9.5" width="140.828125" height="19" style="fill: rgb(0, 0, 0); fill-opacity: 0;"/></g></g><g class="groups" transform=""><g class="traces" transform="translate(0,51.7)" style="opacity: 1;"><text class="legendtext" text-anchor="start" x="40" y="4.680000000000001" style="font-family: 'Courier New'; font-size: 12px; fill: rgb(0, 0, 255); fill-opacity: 1; white-space: pre;">Non geospatial</text><g class="layers" style="opacity: 1;"><g class="legendfill"/><g class="legendlines"><path class="js-line" d="M5,0h30" style="fill: none; stroke: rgb(239, 85, 59); stroke-opacity: 1; stroke-width: 2px;"/></g><g class="legendsymbols"><g class="legendpoints"/></g></g><rect class="legendtoggle" x="0" y="-9.5" width="140.828125" height="19" style="fill: rgb(0, 0, 0); fill-opacity: 0;"/></g></g></g><rect class="scrollbar" rx="20" ry="3" width="0" height="0" style="fill: rgb(128, 139, 164); fill-opacity: 1;" x="0" y="0"/></g><g class="g-gtitle"><text class="gtitle" x="350" y="30" text-anchor="middle" dy="0em" style="font-family: 'Times New Roman'; font-size: 24px; fill: rgb(0, 0, 255); opacity: 1; font-weight: normal; white-space: pre;">Open Data created within the current fiscal year</text></g><g class="g-xtitle"><text class="xtitle" x="306.5" y="461.3" text-anchor="middle" style="font-family: 'Courier New'; font-size: 14px; fill: rgb(0, 0, 255); opacity: 1; font-weight: normal; white-space: pre;">Date</text></g><g class="g-ytitle"><text class="ytitle" transform="rotate(-90,25.887500000000003,240)" x="25.887500000000003" y="240" text-anchor="middle" style="font-family: 'Courier New'; font-size: 14px; fill: rgb(0, 0, 255); opacity: 1; font-weight: normal; white-space: pre;">count</text></g></g></svg>